solid OpenSCAD_Model
  facet normal -1 0 0
    outer loop
      vertex -5 14.25 44
      vertex -5 24.25 67.5
      vertex -5 24.25 44
    endloop
  endfacet
  facet normal -1 -0 0
    outer loop
      vertex -5 24.25 67.5
      vertex -5 14.25 44
      vertex -5 14.25 67.5
    endloop
  endfacet
  facet normal -1 0 0
    outer loop
      vertex -5 14.25 30
      vertex -5 24.25 34
      vertex -5 24.25 30
    endloop
  endfacet
  facet normal -1 -0 0
    outer loop
      vertex -5 24.25 34
      vertex -5 14.25 30
      vertex -5 14.25 34
    endloop
  endfacet
  facet normal -1 0 0
    outer loop
      vertex -5 57.75 44
      vertex -5 67.75 67.5
      vertex -5 67.75 44
    endloop
  endfacet
  facet normal -1 -0 0
    outer loop
      vertex -5 67.75 67.5
      vertex -5 57.75 44
      vertex -5 57.75 67.5
    endloop
  endfacet
  facet normal -1 0 0
    outer loop
      vertex -5 57.75 30
      vertex -5 67.75 34
      vertex -5 67.75 30
    endloop
  endfacet
  facet normal -1 -0 0
    outer loop
      vertex -5 67.75 34
      vertex -5 57.75 30
      vertex -5 57.75 34
    endloop
  endfacet
  facet normal -1 0 0
    outer loop
      vertex -5 67.75 30
      vertex -5 78 0
      vertex -5 67.75 20
    endloop
  endfacet
  facet normal -1 0 0
    outer loop
      vertex -5 51.25 10
      vertex -5 67.75 20
      vertex -5 78 0
    endloop
  endfacet
  facet normal -1 0 0
    outer loop
      vertex -5 51.25 10
      vertex -5 57.75 30
      vertex -5 57.75 20
    endloop
  endfacet
  facet normal -1 -0 0
    outer loop
      vertex -5 57.75 30
      vertex -5 51.25 10
      vertex -5 57.75 34
    endloop
  endfacet
  facet normal -1 -0 0
    outer loop
      vertex -5 57.75 34
      vertex -5 51.25 10
      vertex -5 57.75 44
    endloop
  endfacet
  facet normal -1 0 0
    outer loop
      vertex -5 57.75 44
      vertex -5 51.25 75
      vertex -5 57.75 67.5
    endloop
  endfacet
  facet normal -1 -0 0
    outer loop
      vertex -5 57.75 44
      vertex -5 51.25 10
      vertex -5 51.25 75
    endloop
  endfacet
  facet normal -1 -0 0
    outer loop
      vertex -5 67.75 20
      vertex -5 51.25 10
      vertex -5 57.75 20
    endloop
  endfacet
  facet normal -1 0 0
    outer loop
      vertex -5 78 0
      vertex -5 29.25 10
      vertex -5 51.25 10
    endloop
  endfacet
  facet normal -1 0 0
    outer loop
      vertex -5 24.25 30
      vertex -5 29.25 10
      vertex -5 24.25 20
    endloop
  endfacet
  facet normal -1 0 0
    outer loop
      vertex -5 29.25 10
      vertex -5 14.25 20
      vertex -5 24.25 20
    endloop
  endfacet
  facet normal -1 0 0
    outer loop
      vertex -5 -5 0
      vertex -5 14.25 30
      vertex -5 14.25 20
    endloop
  endfacet
  facet normal -1 -0 0
    outer loop
      vertex -5 14.25 30
      vertex -5 -5 0
      vertex -5 14.25 34
    endloop
  endfacet
  facet normal -1 -0 0
    outer loop
      vertex -5 14.25 34
      vertex -5 -5 0
      vertex -5 14.25 44
    endloop
  endfacet
  facet normal -1 0 0
    outer loop
      vertex -5 14.25 44
      vertex -5 -5 84.5
      vertex -5 14.25 67.5
    endloop
  endfacet
  facet normal -1 -0 0
    outer loop
      vertex -5 14.25 44
      vertex -5 -5 0
      vertex -5 -5 84.5
    endloop
  endfacet
  facet normal -1 -0 0
    outer loop
      vertex -5 29.25 10
      vertex -5 -5 0
      vertex -5 14.25 20
    endloop
  endfacet
  facet normal -1 0 0
    outer loop
      vertex -5 -5 0
      vertex -5 29.25 10
      vertex -5 78 0
    endloop
  endfacet
  facet normal -1 0 0
    outer loop
      vertex -5 67.75 34
      vertex -5 78 0
      vertex -5 67.75 30
    endloop
  endfacet
  facet normal -1 0 0
    outer loop
      vertex -5 67.75 44
      vertex -5 78 0
      vertex -5 67.75 34
    endloop
  endfacet
  facet normal -1 0 0
    outer loop
      vertex -5 78 0
      vertex -5 67.75 44
      vertex -5 78 84.5
    endloop
  endfacet
  facet normal -1 0 0
    outer loop
      vertex -5 67.75 67.5
      vertex -5 78 84.5
      vertex -5 67.75 44
    endloop
  endfacet
  facet normal -1 0 0
    outer loop
      vertex -5 67.75 77.5
      vertex -5 78 84.5
      vertex -5 67.75 67.5
    endloop
  endfacet
  facet normal -1 0 0
    outer loop
      vertex -5 57.75 77.5
      vertex -5 78 84.5
      vertex -5 67.75 77.5
    endloop
  endfacet
  facet normal -1 0 0
    outer loop
      vertex -5 57.75 67.5
      vertex -5 51.25 75
      vertex -5 57.75 77.5
    endloop
  endfacet
  facet normal -1 0 0
    outer loop
      vertex -5 24.25 77.5
      vertex -5 51.25 75
      vertex -5 29.25 75
    endloop
  endfacet
  facet normal -1 0 0
    outer loop
      vertex -5 51.25 75
      vertex -5 24.25 77.5
      vertex -5 57.75 77.5
    endloop
  endfacet
  facet normal -1 0 0
    outer loop
      vertex -5 24.25 34
      vertex -5 29.25 10
      vertex -5 24.25 30
    endloop
  endfacet
  facet normal -1 0 0
    outer loop
      vertex -5 24.25 44
      vertex -5 29.25 10
      vertex -5 24.25 34
    endloop
  endfacet
  facet normal -1 0 0
    outer loop
      vertex -5 29.25 10
      vertex -5 24.25 44
      vertex -5 29.25 75
    endloop
  endfacet
  facet normal -1 0 0
    outer loop
      vertex -5 24.25 67.5
      vertex -5 29.25 75
      vertex -5 24.25 44
    endloop
  endfacet
  facet normal -1 0 0
    outer loop
      vertex -5 24.25 77.5
      vertex -5 29.25 75
      vertex -5 24.25 67.5
    endloop
  endfacet
  facet normal -1 0 0
    outer loop
      vertex -5 57.75 77.5
      vertex -5 24.25 77.5
      vertex -5 78 84.5
    endloop
  endfacet
  facet normal -1 0 0
    outer loop
      vertex -5 -5 84.5
      vertex -5 24.25 77.5
      vertex -5 14.25 77.5
    endloop
  endfacet
  facet normal -1 0 0
    outer loop
      vertex -5 24.25 77.5
      vertex -5 -5 84.5
      vertex -5 78 84.5
    endloop
  endfacet
  facet normal -1 0 0
    outer loop
      vertex -5 14.25 67.5
      vertex -5 -5 84.5
      vertex -5 14.25 77.5
    endloop
  endfacet
  facet normal 0 0 1
    outer loop
      vertex 0 78 84.5
      vertex -5 78 84.5
      vertex 0 -1 84.5
    endloop
  endfacet
  facet normal -0 0 1
    outer loop
      vertex 0 -1 84.5
      vertex 91.5 -5 84.5
      vertex 91.5 -1 84.5
    endloop
  endfacet
  facet normal 0 0 1
    outer loop
      vertex 0 -1 84.5
      vertex -5 -5 84.5
      vertex 91.5 -5 84.5
    endloop
  endfacet
  facet normal 0 0 1
    outer loop
      vertex -5 -5 84.5
      vertex 0 -1 84.5
      vertex -5 78 84.5
    endloop
  endfacet
  facet normal 0 1 -0
    outer loop
      vertex 0 78 0
      vertex -5 78 84.5
      vertex 0 78 84.5
    endloop
  endfacet
  facet normal 0 1 0
    outer loop
      vertex -5 78 84.5
      vertex 0 78 0
      vertex -5 78 0
    endloop
  endfacet
  facet normal 0 1 -0
    outer loop
      vertex 91.5 78 0
      vertex 85 78 5
      vertex 91.5 78 5
    endloop
  endfacet
  facet normal 0 1 0
    outer loop
      vertex 85 78 5
      vertex 91.5 78 0
      vertex 85 78 0
    endloop
  endfacet
  facet normal 0 0 -1
    outer loop
      vertex 0 55 0
      vertex 85 70 0
      vertex 85 55 0
    endloop
  endfacet
  facet normal -0 0 -1
    outer loop
      vertex 85 70 0
      vertex 0 55 0
      vertex 0 70 0
    endloop
  endfacet
  facet normal 0 0 -1
    outer loop
      vertex 0 9 0
      vertex 85 25 0
      vertex 85 9 0
    endloop
  endfacet
  facet normal -0 0 -1
    outer loop
      vertex 85 25 0
      vertex 0 9 0
      vertex 0 25 0
    endloop
  endfacet
  facet normal 0 0 -1
    outer loop
      vertex 85 9 0
      vertex 91.5 -5 0
      vertex 85 -1 0
    endloop
  endfacet
  facet normal 0 0 -1
    outer loop
      vertex -5 -5 0
      vertex 85 -1 0
      vertex 91.5 -5 0
    endloop
  endfacet
  facet normal 0 0 -1
    outer loop
      vertex -5 -5 0
      vertex 0 9 0
      vertex 0 -1 0
    endloop
  endfacet
  facet normal -0 0 -1
    outer loop
      vertex 0 9 0
      vertex -5 -5 0
      vertex 0 25 0
    endloop
  endfacet
  facet normal 0 0 -1
    outer loop
      vertex -5 78 0
      vertex 0 25 0
      vertex -5 -5 0
    endloop
  endfacet
  facet normal 0 0 -1
    outer loop
      vertex 0 25 0
      vertex -5 78 0
      vertex 0 55 0
    endloop
  endfacet
  facet normal -0 0 -1
    outer loop
      vertex 85 -1 0
      vertex -5 -5 0
      vertex 0 -1 0
    endloop
  endfacet
  facet normal 0 0 -1
    outer loop
      vertex 0 55 0
      vertex -5 78 0
      vertex 0 70 0
    endloop
  endfacet
  facet normal 0 0 -1
    outer loop
      vertex 0 70 0
      vertex -5 78 0
      vertex 0 78 0
    endloop
  endfacet
  facet normal 0 0 -1
    outer loop
      vertex 85 25 0
      vertex 91.5 -5 0
      vertex 85 9 0
    endloop
  endfacet
  facet normal 0 0 -1
    outer loop
      vertex 91.5 -5 0
      vertex 85 25 0
      vertex 91.5 78 0
    endloop
  endfacet
  facet normal 0 0 -1
    outer loop
      vertex 85 55 0
      vertex 91.5 78 0
      vertex 85 25 0
    endloop
  endfacet
  facet normal 0 0 -1
    outer loop
      vertex 85 70 0
      vertex 91.5 78 0
      vertex 85 55 0
    endloop
  endfacet
  facet normal -0 0 -1
    outer loop
      vertex 91.5 78 0
      vertex 85 70 0
      vertex 85 78 0
    endloop
  endfacet
  facet normal 0 -1 0
    outer loop
      vertex 50 -5 10
      vertex 60 -5 75
      vertex 50 -5 75
    endloop
  endfacet
  facet normal 0 -1 -0
    outer loop
      vertex 60 -5 75
      vertex 50 -5 10
      vertex 60 -5 10
    endloop
  endfacet
  facet normal 0 -1 0
    outer loop
      vertex 30 -5 10
      vertex 40 -5 75
      vertex 30 -5 75
    endloop
  endfacet
  facet normal 0 -1 -0
    outer loop
      vertex 40 -5 75
      vertex 30 -5 10
      vertex 40 -5 10
    endloop
  endfacet
  facet normal 0 -1 0
    outer loop
      vertex 15 -5 10
      vertex 20 -5 75
      vertex 15 -5 75
    endloop
  endfacet
  facet normal 0 -1 -0
    outer loop
      vertex 20 -5 75
      vertex 15 -5 10
      vertex 20 -5 10
    endloop
  endfacet
  facet normal 0 -1 0
    outer loop
      vertex 15 -5 75
      vertex -5 -5 84.5
      vertex 5 -5 75
    endloop
  endfacet
  facet normal 0 -1 0
    outer loop
      vertex -5 -5 84.5
      vertex 5 -5 10
      vertex 5 -5 75
    endloop
  endfacet
  facet normal 0 -1 0
    outer loop
      vertex -5 -5 0
      vertex 15 -5 10
      vertex 5 -5 10
    endloop
  endfacet
  facet normal 0 -1 -0
    outer loop
      vertex 15 -5 10
      vertex -5 -5 0
      vertex 20 -5 10
    endloop
  endfacet
  facet normal 0 -1 -0
    outer loop
      vertex 20 -5 10
      vertex -5 -5 0
      vertex 30 -5 10
    endloop
  endfacet
  facet normal 0 -1 -0
    outer loop
      vertex 30 -5 10
      vertex -5 -5 0
      vertex 40 -5 10
    endloop
  endfacet
  facet normal 0 -1 0
    outer loop
      vertex 91.5 -5 0
      vertex 40 -5 10
      vertex -5 -5 0
    endloop
  endfacet
  facet normal 0 -1 0
    outer loop
      vertex 40 -5 10
      vertex 91.5 -5 0
      vertex 50 -5 10
    endloop
  endfacet
  facet normal 0 -1 0
    outer loop
      vertex 50 -5 10
      vertex 91.5 -5 0
      vertex 60 -5 10
    endloop
  endfacet
  facet normal 0 -1 0
    outer loop
      vertex -5 -5 0
      vertex 5 -5 10
      vertex -5 -5 84.5
    endloop
  endfacet
  facet normal 0 -1 0
    outer loop
      vertex 20 -5 75
      vertex -5 -5 84.5
      vertex 15 -5 75
    endloop
  endfacet
  facet normal 0 -1 0
    outer loop
      vertex 30 -5 75
      vertex -5 -5 84.5
      vertex 20 -5 75
    endloop
  endfacet
  facet normal 0 -1 0
    outer loop
      vertex 40 -5 75
      vertex -5 -5 84.5
      vertex 30 -5 75
    endloop
  endfacet
  facet normal 0 -1 0
    outer loop
      vertex -5 -5 84.5
      vertex 40 -5 75
      vertex 91.5 -5 84.5
    endloop
  endfacet
  facet normal 0 -1 0
    outer loop
      vertex 50 -5 75
      vertex 91.5 -5 84.5
      vertex 40 -5 75
    endloop
  endfacet
  facet normal 0 -1 0
    outer loop
      vertex 60 -5 75
      vertex 91.5 -5 84.5
      vertex 50 -5 75
    endloop
  endfacet
  facet normal 0 -1 0
    outer loop
      vertex 70 -5 75
      vertex 91.5 -5 84.5
      vertex 60 -5 75
    endloop
  endfacet
  facet normal 0 -1 0
    outer loop
      vertex 70 -5 10
      vertex 91.5 -5 84.5
      vertex 70 -5 75
    endloop
  endfacet
  facet normal 0 -1 0
    outer loop
      vertex 70 -5 10
      vertex 91.5 -5 0
      vertex 91.5 -5 84.5
    endloop
  endfacet
  facet normal 0 -1 0
    outer loop
      vertex 60 -5 10
      vertex 91.5 -5 0
      vertex 70 -5 10
    endloop
  endfacet
  facet normal 1 -0 0
    outer loop
      vertex 0 14.25 34
      vertex 0 24.25 30
      vertex 0 24.25 34
    endloop
  endfacet
  facet normal 1 0 0
    outer loop
      vertex 0 24.25 30
      vertex 0 14.25 34
      vertex 0 14.25 30
    endloop
  endfacet
  facet normal 1 -0 0
    outer loop
      vertex 0 14.25 67.5
      vertex 0 24.25 44
      vertex 0 24.25 67.5
    endloop
  endfacet
  facet normal 1 0 0
    outer loop
      vertex 0 24.25 44
      vertex 0 14.25 67.5
      vertex 0 14.25 44
    endloop
  endfacet
  facet normal 1 -0 0
    outer loop
      vertex 0 57.75 34
      vertex 0 67.75 30
      vertex 0 67.75 34
    endloop
  endfacet
  facet normal 1 0 0
    outer loop
      vertex 0 67.75 30
      vertex 0 57.75 34
      vertex 0 57.75 30
    endloop
  endfacet
  facet normal 1 -0 0
    outer loop
      vertex 0 57.75 67.5
      vertex 0 67.75 44
      vertex 0 67.75 67.5
    endloop
  endfacet
  facet normal 1 0 0
    outer loop
      vertex 0 67.75 44
      vertex 0 57.75 67.5
      vertex 0 57.75 44
    endloop
  endfacet
  facet normal 1 -0 0
    outer loop
      vertex 0 67.75 44
      vertex 0 78 0
      vertex 0 78 84.5
    endloop
  endfacet
  facet normal 1 0 0
    outer loop
      vertex 0 67.75 67.5
      vertex 0 78 84.5
      vertex 0 67.75 77.5
    endloop
  endfacet
  facet normal 1 0 0
    outer loop
      vertex 0 78 84.5
      vertex 0 57.75 77.5
      vertex 0 67.75 77.5
    endloop
  endfacet
  facet normal 1 -0 0
    outer loop
      vertex 0 51.25 75
      vertex 0 57.75 67.5
      vertex 0 57.75 77.5
    endloop
  endfacet
  facet normal 1 0 0
    outer loop
      vertex 0 57.75 67.5
      vertex 0 51.25 75
      vertex 0 57.75 44
    endloop
  endfacet
  facet normal 1 0 0
    outer loop
      vertex 0 51.25 10
      vertex 0 57.75 44
      vertex 0 51.25 75
    endloop
  endfacet
  facet normal 1 0 0
    outer loop
      vertex 0 57.75 44
      vertex 0 51.25 10
      vertex 0 57.75 34
    endloop
  endfacet
  facet normal 1 0 0
    outer loop
      vertex 0 57.75 34
      vertex 0 51.25 10
      vertex 0 57.75 30
    endloop
  endfacet
  facet normal 1 0 0
    outer loop
      vertex 0 57.75 20
      vertex 0 51.25 10
      vertex 0 55 5
    endloop
  endfacet
  facet normal 1 0 0
    outer loop
      vertex 0 57.75 30
      vertex 0 51.25 10
      vertex 0 57.75 20
    endloop
  endfacet
  facet normal 1 -0 0
    outer loop
      vertex 0 24.25 77.5
      vertex 0 51.25 75
      vertex 0 57.75 77.5
    endloop
  endfacet
  facet normal 1 0 0
    outer loop
      vertex 0 24.25 77.5
      vertex 0 57.75 77.5
      vertex 0 78 84.5
    endloop
  endfacet
  facet normal 1 -0 0
    outer loop
      vertex 0 24.25 44
      vertex 0 29.25 10
      vertex 0 29.25 75
    endloop
  endfacet
  facet normal 1 0 0
    outer loop
      vertex 0 24.25 67.5
      vertex 0 29.25 75
      vertex 0 24.25 77.5
    endloop
  endfacet
  facet normal 1 0 0
    outer loop
      vertex 0 51.25 75
      vertex 0 24.25 77.5
      vertex 0 29.25 75
    endloop
  endfacet
  facet normal 1 -0 0
    outer loop
      vertex 0 -1 84.5
      vertex 0 24.25 77.5
      vertex 0 78 84.5
    endloop
  endfacet
  facet normal 1 0 0
    outer loop
      vertex 0 -1 84.5
      vertex 0 14.25 67.5
      vertex 0 14.25 77.5
    endloop
  endfacet
  facet normal 1 0 0
    outer loop
      vertex 0 14.25 67.5
      vertex 0 -1 84.5
      vertex 0 14.25 44
    endloop
  endfacet
  facet normal 1 0 0
    outer loop
      vertex 0 -1 0
      vertex 0 14.25 44
      vertex 0 -1 84.5
    endloop
  endfacet
  facet normal 1 0 0
    outer loop
      vertex 0 14.25 44
      vertex 0 -1 0
      vertex 0 14.25 34
    endloop
  endfacet
  facet normal 1 0 0
    outer loop
      vertex 0 14.25 34
      vertex 0 -1 0
      vertex 0 14.25 30
    endloop
  endfacet
  facet normal 1 0 0
    outer loop
      vertex 0 24.25 77.5
      vertex 0 -1 84.5
      vertex 0 14.25 77.5
    endloop
  endfacet
  facet normal 1 0 0
    outer loop
      vertex 0 14.25 30
      vertex 0 -1 0
      vertex 0 14.25 20
    endloop
  endfacet
  facet normal 1 0 0
    outer loop
      vertex 0 14.25 20
      vertex 0 -1 0
      vertex 0 9 5
    endloop
  endfacet
  facet normal 1 0 0
    outer loop
      vertex 0 9 5
      vertex 0 -1 0
      vertex 0 9 0
    endloop
  endfacet
  facet normal 1 0 0
    outer loop
      vertex 0 78 0
      vertex 0 70 5
      vertex 0 70 0
    endloop
  endfacet
  facet normal 1 0 0
    outer loop
      vertex 0 67.75 44
      vertex 0 78 84.5
      vertex 0 67.75 67.5
    endloop
  endfacet
  facet normal 1 0 0
    outer loop
      vertex 0 78 0
      vertex 0 67.75 44
      vertex 0 67.75 34
    endloop
  endfacet
  facet normal 1 0 0
    outer loop
      vertex 0 78 0
      vertex 0 67.75 34
      vertex 0 67.75 30
    endloop
  endfacet
  facet normal 1 -0 0
    outer loop
      vertex 0 67.75 20
      vertex 0 78 0
      vertex 0 67.75 30
    endloop
  endfacet
  facet normal 1 0 0
    outer loop
      vertex 0 78 0
      vertex 0 67.75 20
      vertex 0 70 5
    endloop
  endfacet
  facet normal 1 -0 0
    outer loop
      vertex 0 57.75 20
      vertex 0 70 5
      vertex 0 67.75 20
    endloop
  endfacet
  facet normal 1 0 0
    outer loop
      vertex 0 70 5
      vertex 0 57.75 20
      vertex 0 55 5
    endloop
  endfacet
  facet normal 1 0 0
    outer loop
      vertex 0 55 5
      vertex 0 51.25 10
      vertex 0 55 0
    endloop
  endfacet
  facet normal 1 -0 0
    outer loop
      vertex 0 29.25 10
      vertex 0 55 0
      vertex 0 51.25 10
    endloop
  endfacet
  facet normal 1 0 0
    outer loop
      vertex 0 25 0
      vertex 0 29.25 10
      vertex 0 25 5
    endloop
  endfacet
  facet normal 1 0 0
    outer loop
      vertex 0 29.25 10
      vertex 0 25 0
      vertex 0 55 0
    endloop
  endfacet
  facet normal 1 0 0
    outer loop
      vertex 0 24.25 44
      vertex 0 29.25 75
      vertex 0 24.25 67.5
    endloop
  endfacet
  facet normal 1 0 0
    outer loop
      vertex 0 29.25 10
      vertex 0 24.25 44
      vertex 0 24.25 34
    endloop
  endfacet
  facet normal 1 0 0
    outer loop
      vertex 0 29.25 10
      vertex 0 24.25 34
      vertex 0 24.25 30
    endloop
  endfacet
  facet normal 1 -0 0
    outer loop
      vertex 0 24.25 20
      vertex 0 29.25 10
      vertex 0 24.25 30
    endloop
  endfacet
  facet normal 1 0 0
    outer loop
      vertex 0 29.25 10
      vertex 0 24.25 20
      vertex 0 25 5
    endloop
  endfacet
  facet normal 1 -0 0
    outer loop
      vertex 0 14.25 20
      vertex 0 25 5
      vertex 0 24.25 20
    endloop
  endfacet
  facet normal 1 0 0
    outer loop
      vertex 0 25 5
      vertex 0 14.25 20
      vertex 0 9 5
    endloop
  endfacet
  facet normal -0 0 1
    outer loop
      vertex 0 25 5
      vertex 85 9 5
      vertex 85 25 5
    endloop
  endfacet
  facet normal 0 0 1
    outer loop
      vertex 85 9 5
      vertex 0 25 5
      vertex 0 9 5
    endloop
  endfacet
  facet normal -0 0 1
    outer loop
      vertex 0 70 5
      vertex 85 55 5
      vertex 85 70 5
    endloop
  endfacet
  facet normal 0 0 1
    outer loop
      vertex 85 55 5
      vertex 0 70 5
      vertex 0 55 5
    endloop
  endfacet
  facet normal 0 0 1
    outer loop
      vertex 85 70 5
      vertex 91.5 78 5
      vertex 85 78 5
    endloop
  endfacet
  facet normal 0 0 1
    outer loop
      vertex 85 55 5
      vertex 91.5 78 5
      vertex 85 70 5
    endloop
  endfacet
  facet normal 0 0 1
    outer loop
      vertex 85 25 5
      vertex 91.5 78 5
      vertex 85 55 5
    endloop
  endfacet
  facet normal 0 0 1
    outer loop
      vertex 91.5 78 5
      vertex 85 25 5
      vertex 91.5 -1 5
    endloop
  endfacet
  facet normal -0 0 1
    outer loop
      vertex 85 9 5
      vertex 91.5 -1 5
      vertex 85 25 5
    endloop
  endfacet
  facet normal 0 0 1
    outer loop
      vertex 91.5 -1 5
      vertex 85 9 5
      vertex 85 -1 5
    endloop
  endfacet
  facet normal 0 1 -0
    outer loop
      vertex 20 -1 10
      vertex 15 -1 75
      vertex 20 -1 75
    endloop
  endfacet
  facet normal 0 1 0
    outer loop
      vertex 15 -1 75
      vertex 20 -1 10
      vertex 15 -1 10
    endloop
  endfacet
  facet normal 0 1 -0
    outer loop
      vertex 40 -1 10
      vertex 30 -1 75
      vertex 40 -1 75
    endloop
  endfacet
  facet normal 0 1 0
    outer loop
      vertex 30 -1 75
      vertex 40 -1 10
      vertex 30 -1 10
    endloop
  endfacet
  facet normal 0 1 -0
    outer loop
      vertex 60 -1 10
      vertex 50 -1 75
      vertex 60 -1 75
    endloop
  endfacet
  facet normal 0 1 0
    outer loop
      vertex 50 -1 75
      vertex 60 -1 10
      vertex 50 -1 10
    endloop
  endfacet
  facet normal 0 1 0
    outer loop
      vertex 60 -1 75
      vertex 91.5 -1 84.5
      vertex 70 -1 75
    endloop
  endfacet
  facet normal 0 1 -0
    outer loop
      vertex 91.5 -1 5
      vertex 70 -1 75
      vertex 91.5 -1 84.5
    endloop
  endfacet
  facet normal 0 1 0
    outer loop
      vertex 85 -1 0
      vertex 60 -1 10
      vertex 70 -1 10
    endloop
  endfacet
  facet normal 0 1 0
    outer loop
      vertex 60 -1 10
      vertex 85 -1 0
      vertex 50 -1 10
    endloop
  endfacet
  facet normal 0 1 0
    outer loop
      vertex 50 -1 10
      vertex 85 -1 0
      vertex 40 -1 10
    endloop
  endfacet
  facet normal 0 1 0
    outer loop
      vertex 0 -1 0
      vertex 40 -1 10
      vertex 85 -1 0
    endloop
  endfacet
  facet normal 0 1 0
    outer loop
      vertex 40 -1 10
      vertex 0 -1 0
      vertex 30 -1 10
    endloop
  endfacet
  facet normal 0 1 0
    outer loop
      vertex 20 -1 10
      vertex 0 -1 0
      vertex 15 -1 10
    endloop
  endfacet
  facet normal 0 1 -0
    outer loop
      vertex 85 -1 5
      vertex 70 -1 10
      vertex 91.5 -1 5
    endloop
  endfacet
  facet normal 0 1 0
    outer loop
      vertex 70 -1 75
      vertex 91.5 -1 5
      vertex 70 -1 10
    endloop
  endfacet
  facet normal 0 1 0
    outer loop
      vertex 50 -1 75
      vertex 91.5 -1 84.5
      vertex 60 -1 75
    endloop
  endfacet
  facet normal 0 1 0
    outer loop
      vertex 91.5 -1 84.5
      vertex 50 -1 75
      vertex 0 -1 84.5
    endloop
  endfacet
  facet normal 0 1 -0
    outer loop
      vertex 40 -1 75
      vertex 0 -1 84.5
      vertex 50 -1 75
    endloop
  endfacet
  facet normal 0 1 -0
    outer loop
      vertex 30 -1 75
      vertex 0 -1 84.5
      vertex 40 -1 75
    endloop
  endfacet
  facet normal 0 1 -0
    outer loop
      vertex 20 -1 75
      vertex 0 -1 84.5
      vertex 30 -1 75
    endloop
  endfacet
  facet normal 0 1 -0
    outer loop
      vertex 15 -1 75
      vertex 0 -1 84.5
      vertex 20 -1 75
    endloop
  endfacet
  facet normal 0 1 -0
    outer loop
      vertex 5 -1 75
      vertex 0 -1 84.5
      vertex 15 -1 75
    endloop
  endfacet
  facet normal 0 1 -0
    outer loop
      vertex 5 -1 10
      vertex 0 -1 84.5
      vertex 5 -1 75
    endloop
  endfacet
  facet normal 0 1 -0
    outer loop
      vertex 85 -1 0
      vertex 70 -1 10
      vertex 85 -1 5
    endloop
  endfacet
  facet normal 0 1 0
    outer loop
      vertex 30 -1 10
      vertex 0 -1 0
      vertex 20 -1 10
    endloop
  endfacet
  facet normal 0 1 0
    outer loop
      vertex 5 -1 10
      vertex 0 -1 0
      vertex 0 -1 84.5
    endloop
  endfacet
  facet normal 0 1 0
    outer loop
      vertex 15 -1 10
      vertex 0 -1 0
      vertex 5 -1 10
    endloop
  endfacet
  facet normal -1 0 0
    outer loop
      vertex 85 -1 0
      vertex 85 9 5
      vertex 85 9 0
    endloop
  endfacet
  facet normal -1 -0 0
    outer loop
      vertex 85 9 5
      vertex 85 -1 0
      vertex 85 -1 5
    endloop
  endfacet
  facet normal 0 -1 0
    outer loop
      vertex 0 9 0
      vertex 85 9 5
      vertex 0 9 5
    endloop
  endfacet
  facet normal 0 -1 -0
    outer loop
      vertex 85 9 5
      vertex 0 9 0
      vertex 85 9 0
    endloop
  endfacet
  facet normal -1 0 0
    outer loop
      vertex 85 25 0
      vertex 85 55 5
      vertex 85 55 0
    endloop
  endfacet
  facet normal -1 -0 0
    outer loop
      vertex 85 55 5
      vertex 85 25 0
      vertex 85 25 5
    endloop
  endfacet
  facet normal 0 -1 0
    outer loop
      vertex 0 55 0
      vertex 85 55 5
      vertex 0 55 5
    endloop
  endfacet
  facet normal 0 -1 -0
    outer loop
      vertex 85 55 5
      vertex 0 55 0
      vertex 85 55 0
    endloop
  endfacet
  facet normal 0 1 -0
    outer loop
      vertex 85 25 0
      vertex 0 25 5
      vertex 85 25 5
    endloop
  endfacet
  facet normal 0 1 0
    outer loop
      vertex 0 25 5
      vertex 85 25 0
      vertex 0 25 0
    endloop
  endfacet
  facet normal -1 0 0
    outer loop
      vertex 85 70 0
      vertex 85 78 5
      vertex 85 78 0
    endloop
  endfacet
  facet normal -1 -0 0
    outer loop
      vertex 85 78 5
      vertex 85 70 0
      vertex 85 70 5
    endloop
  endfacet
  facet normal 0 1 -0
    outer loop
      vertex 85 70 0
      vertex 0 70 5
      vertex 85 70 5
    endloop
  endfacet
  facet normal 0 1 0
    outer loop
      vertex 0 70 5
      vertex 85 70 0
      vertex 0 70 0
    endloop
  endfacet
  facet normal 1 -0 0
    outer loop
      vertex 5 -5 75
      vertex 5 -1 10
      vertex 5 -1 75
    endloop
  endfacet
  facet normal 1 0 0
    outer loop
      vertex 5 -1 10
      vertex 5 -5 75
      vertex 5 -5 10
    endloop
  endfacet
  facet normal 0 0 -1
    outer loop
      vertex 5 -5 75
      vertex 15 -1 75
      vertex 15 -5 75
    endloop
  endfacet
  facet normal -0 0 -1
    outer loop
      vertex 15 -1 75
      vertex 5 -5 75
      vertex 5 -1 75
    endloop
  endfacet
  facet normal -1 0 0
    outer loop
      vertex 15 -5 10
      vertex 15 -1 75
      vertex 15 -1 10
    endloop
  endfacet
  facet normal -1 -0 0
    outer loop
      vertex 15 -1 75
      vertex 15 -5 10
      vertex 15 -5 75
    endloop
  endfacet
  facet normal -0 0 1
    outer loop
      vertex 5 -1 10
      vertex 15 -5 10
      vertex 15 -1 10
    endloop
  endfacet
  facet normal 0 0 1
    outer loop
      vertex 15 -5 10
      vertex 5 -1 10
      vertex 5 -5 10
    endloop
  endfacet
  facet normal 1 -0 0
    outer loop
      vertex 20 -5 75
      vertex 20 -1 10
      vertex 20 -1 75
    endloop
  endfacet
  facet normal 1 0 0
    outer loop
      vertex 20 -1 10
      vertex 20 -5 75
      vertex 20 -5 10
    endloop
  endfacet
  facet normal 0 0 -1
    outer loop
      vertex 20 -5 75
      vertex 30 -1 75
      vertex 30 -5 75
    endloop
  endfacet
  facet normal -0 0 -1
    outer loop
      vertex 30 -1 75
      vertex 20 -5 75
      vertex 20 -1 75
    endloop
  endfacet
  facet normal -1 0 0
    outer loop
      vertex 30 -5 10
      vertex 30 -1 75
      vertex 30 -1 10
    endloop
  endfacet
  facet normal -1 -0 0
    outer loop
      vertex 30 -1 75
      vertex 30 -5 10
      vertex 30 -5 75
    endloop
  endfacet
  facet normal -0 0 1
    outer loop
      vertex 20 -1 10
      vertex 30 -5 10
      vertex 30 -1 10
    endloop
  endfacet
  facet normal 0 0 1
    outer loop
      vertex 30 -5 10
      vertex 20 -1 10
      vertex 20 -5 10
    endloop
  endfacet
  facet normal 1 -0 0
    outer loop
      vertex 40 -5 75
      vertex 40 -1 10
      vertex 40 -1 75
    endloop
  endfacet
  facet normal 1 0 0
    outer loop
      vertex 40 -1 10
      vertex 40 -5 75
      vertex 40 -5 10
    endloop
  endfacet
  facet normal 0 0 -1
    outer loop
      vertex 40 -5 75
      vertex 50 -1 75
      vertex 50 -5 75
    endloop
  endfacet
  facet normal -0 0 -1
    outer loop
      vertex 50 -1 75
      vertex 40 -5 75
      vertex 40 -1 75
    endloop
  endfacet
  facet normal -1 0 0
    outer loop
      vertex 50 -5 10
      vertex 50 -1 75
      vertex 50 -1 10
    endloop
  endfacet
  facet normal -1 -0 0
    outer loop
      vertex 50 -1 75
      vertex 50 -5 10
      vertex 50 -5 75
    endloop
  endfacet
  facet normal -0 0 1
    outer loop
      vertex 40 -1 10
      vertex 50 -5 10
      vertex 50 -1 10
    endloop
  endfacet
  facet normal 0 0 1
    outer loop
      vertex 50 -5 10
      vertex 40 -1 10
      vertex 40 -5 10
    endloop
  endfacet
  facet normal 1 -0 0
    outer loop
      vertex 60 -5 75
      vertex 60 -1 10
      vertex 60 -1 75
    endloop
  endfacet
  facet normal 1 0 0
    outer loop
      vertex 60 -1 10
      vertex 60 -5 75
      vertex 60 -5 10
    endloop
  endfacet
  facet normal 0 0 -1
    outer loop
      vertex 60 -5 75
      vertex 70 -1 75
      vertex 70 -5 75
    endloop
  endfacet
  facet normal -0 0 -1
    outer loop
      vertex 70 -1 75
      vertex 60 -5 75
      vertex 60 -1 75
    endloop
  endfacet
  facet normal -1 0 0
    outer loop
      vertex 70 -5 10
      vertex 70 -1 75
      vertex 70 -1 10
    endloop
  endfacet
  facet normal -1 -0 0
    outer loop
      vertex 70 -1 75
      vertex 70 -5 10
      vertex 70 -5 75
    endloop
  endfacet
  facet normal -0 0 1
    outer loop
      vertex 60 -1 10
      vertex 70 -5 10
      vertex 70 -1 10
    endloop
  endfacet
  facet normal 0 0 1
    outer loop
      vertex 70 -5 10
      vertex 60 -1 10
      vertex 60 -5 10
    endloop
  endfacet
  facet normal 0 0 -1
    outer loop
      vertex -5 29.25 75
      vertex 0 51.25 75
      vertex 0 29.25 75
    endloop
  endfacet
  facet normal -0 0 -1
    outer loop
      vertex 0 51.25 75
      vertex -5 29.25 75
      vertex -5 51.25 75
    endloop
  endfacet
  facet normal 0 -1 0
    outer loop
      vertex -5 51.25 10
      vertex 0 51.25 75
      vertex -5 51.25 75
    endloop
  endfacet
  facet normal 0 -1 -0
    outer loop
      vertex 0 51.25 75
      vertex -5 51.25 10
      vertex 0 51.25 10
    endloop
  endfacet
  facet normal -0 0 1
    outer loop
      vertex -5 51.25 10
      vertex 0 29.25 10
      vertex 0 51.25 10
    endloop
  endfacet
  facet normal 0 0 1
    outer loop
      vertex 0 29.25 10
      vertex -5 51.25 10
      vertex -5 29.25 10
    endloop
  endfacet
  facet normal 0 1 -0
    outer loop
      vertex 0 29.25 10
      vertex -5 29.25 75
      vertex 0 29.25 75
    endloop
  endfacet
  facet normal 0 1 0
    outer loop
      vertex -5 29.25 75
      vertex 0 29.25 10
      vertex -5 29.25 10
    endloop
  endfacet
  facet normal 0 0 -1
    outer loop
      vertex -5 14.25 30
      vertex 0 24.25 30
      vertex 0 14.25 30
    endloop
  endfacet
  facet normal -0 0 -1
    outer loop
      vertex 0 24.25 30
      vertex -5 14.25 30
      vertex -5 24.25 30
    endloop
  endfacet
  facet normal 0 -1 0
    outer loop
      vertex -5 24.25 20
      vertex 0 24.25 30
      vertex -5 24.25 30
    endloop
  endfacet
  facet normal 0 -1 -0
    outer loop
      vertex 0 24.25 30
      vertex -5 24.25 20
      vertex 0 24.25 20
    endloop
  endfacet
  facet normal -0 0 1
    outer loop
      vertex -5 24.25 20
      vertex 0 14.25 20
      vertex 0 24.25 20
    endloop
  endfacet
  facet normal 0 0 1
    outer loop
      vertex 0 14.25 20
      vertex -5 24.25 20
      vertex -5 14.25 20
    endloop
  endfacet
  facet normal 0 1 -0
    outer loop
      vertex 0 14.25 20
      vertex -5 14.25 30
      vertex 0 14.25 30
    endloop
  endfacet
  facet normal 0 1 0
    outer loop
      vertex -5 14.25 30
      vertex 0 14.25 20
      vertex -5 14.25 20
    endloop
  endfacet
  facet normal 0 0 -1
    outer loop
      vertex -5 57.75 30
      vertex 0 67.75 30
      vertex 0 57.75 30
    endloop
  endfacet
  facet normal -0 0 -1
    outer loop
      vertex 0 67.75 30
      vertex -5 57.75 30
      vertex -5 67.75 30
    endloop
  endfacet
  facet normal 0 -1 0
    outer loop
      vertex -5 67.75 20
      vertex 0 67.75 30
      vertex -5 67.75 30
    endloop
  endfacet
  facet normal 0 -1 -0
    outer loop
      vertex 0 67.75 30
      vertex -5 67.75 20
      vertex 0 67.75 20
    endloop
  endfacet
  facet normal -0 0 1
    outer loop
      vertex -5 67.75 20
      vertex 0 57.75 20
      vertex 0 67.75 20
    endloop
  endfacet
  facet normal 0 0 1
    outer loop
      vertex 0 57.75 20
      vertex -5 67.75 20
      vertex -5 57.75 20
    endloop
  endfacet
  facet normal 0 1 -0
    outer loop
      vertex 0 57.75 20
      vertex -5 57.75 30
      vertex 0 57.75 30
    endloop
  endfacet
  facet normal 0 1 0
    outer loop
      vertex -5 57.75 30
      vertex 0 57.75 20
      vertex -5 57.75 20
    endloop
  endfacet
  facet normal 0 0 -1
    outer loop
      vertex -5 14.25 44
      vertex 0 24.25 44
      vertex 0 14.25 44
    endloop
  endfacet
  facet normal -0 0 -1
    outer loop
      vertex 0 24.25 44
      vertex -5 14.25 44
      vertex -5 24.25 44
    endloop
  endfacet
  facet normal -0 0 1
    outer loop
      vertex -5 24.25 34
      vertex 0 14.25 34
      vertex 0 24.25 34
    endloop
  endfacet
  facet normal 0 0 1
    outer loop
      vertex 0 14.25 34
      vertex -5 24.25 34
      vertex -5 14.25 34
    endloop
  endfacet
  facet normal 0 1 -0
    outer loop
      vertex 0 14.25 34
      vertex -5 14.25 44
      vertex 0 14.25 44
    endloop
  endfacet
  facet normal 0 1 0
    outer loop
      vertex -5 14.25 44
      vertex 0 14.25 34
      vertex -5 14.25 34
    endloop
  endfacet
  facet normal 0 -1 0
    outer loop
      vertex -5 24.25 34
      vertex 0 24.25 44
      vertex -5 24.25 44
    endloop
  endfacet
  facet normal 0 -1 -0
    outer loop
      vertex 0 24.25 44
      vertex -5 24.25 34
      vertex 0 24.25 34
    endloop
  endfacet
  facet normal 0 0 -1
    outer loop
      vertex -5 57.75 44
      vertex 0 67.75 44
      vertex 0 57.75 44
    endloop
  endfacet
  facet normal -0 0 -1
    outer loop
      vertex 0 67.75 44
      vertex -5 57.75 44
      vertex -5 67.75 44
    endloop
  endfacet
  facet normal 0 -1 0
    outer loop
      vertex -5 67.75 34
      vertex 0 67.75 44
      vertex -5 67.75 44
    endloop
  endfacet
  facet normal 0 -1 -0
    outer loop
      vertex 0 67.75 44
      vertex -5 67.75 34
      vertex 0 67.75 34
    endloop
  endfacet
  facet normal -0 0 1
    outer loop
      vertex -5 67.75 34
      vertex 0 57.75 34
      vertex 0 67.75 34
    endloop
  endfacet
  facet normal 0 0 1
    outer loop
      vertex 0 57.75 34
      vertex -5 67.75 34
      vertex -5 57.75 34
    endloop
  endfacet
  facet normal 0 1 -0
    outer loop
      vertex 0 57.75 34
      vertex -5 57.75 44
      vertex 0 57.75 44
    endloop
  endfacet
  facet normal 0 1 0
    outer loop
      vertex -5 57.75 44
      vertex 0 57.75 34
      vertex -5 57.75 34
    endloop
  endfacet
  facet normal 0 0 -1
    outer loop
      vertex -5 14.25 77.5
      vertex 0 24.25 77.5
      vertex 0 14.25 77.5
    endloop
  endfacet
  facet normal -0 0 -1
    outer loop
      vertex 0 24.25 77.5
      vertex -5 14.25 77.5
      vertex -5 24.25 77.5
    endloop
  endfacet
  facet normal -0 0 1
    outer loop
      vertex -5 24.25 67.5
      vertex 0 14.25 67.5
      vertex 0 24.25 67.5
    endloop
  endfacet
  facet normal 0 0 1
    outer loop
      vertex 0 14.25 67.5
      vertex -5 24.25 67.5
      vertex -5 14.25 67.5
    endloop
  endfacet
  facet normal 0 1 -0
    outer loop
      vertex 0 14.25 67.5
      vertex -5 14.25 77.5
      vertex 0 14.25 77.5
    endloop
  endfacet
  facet normal 0 1 0
    outer loop
      vertex -5 14.25 77.5
      vertex 0 14.25 67.5
      vertex -5 14.25 67.5
    endloop
  endfacet
  facet normal 0 -1 0
    outer loop
      vertex -5 24.25 67.5
      vertex 0 24.25 77.5
      vertex -5 24.25 77.5
    endloop
  endfacet
  facet normal 0 -1 -0
    outer loop
      vertex 0 24.25 77.5
      vertex -5 24.25 67.5
      vertex 0 24.25 67.5
    endloop
  endfacet
  facet normal 0 0 -1
    outer loop
      vertex -5 57.75 77.5
      vertex 0 67.75 77.5
      vertex 0 57.75 77.5
    endloop
  endfacet
  facet normal -0 0 -1
    outer loop
      vertex 0 67.75 77.5
      vertex -5 57.75 77.5
      vertex -5 67.75 77.5
    endloop
  endfacet
  facet normal -0 0 1
    outer loop
      vertex -5 67.75 67.5
      vertex 0 57.75 67.5
      vertex 0 67.75 67.5
    endloop
  endfacet
  facet normal 0 0 1
    outer loop
      vertex 0 57.75 67.5
      vertex -5 67.75 67.5
      vertex -5 57.75 67.5
    endloop
  endfacet
  facet normal 0 1 -0
    outer loop
      vertex 0 57.75 67.5
      vertex -5 57.75 77.5
      vertex 0 57.75 77.5
    endloop
  endfacet
  facet normal 0 1 0
    outer loop
      vertex -5 57.75 77.5
      vertex 0 57.75 67.5
      vertex -5 57.75 67.5
    endloop
  endfacet
  facet normal 0 -1 0
    outer loop
      vertex -5 67.75 67.5
      vertex 0 67.75 77.5
      vertex -5 67.75 77.5
    endloop
  endfacet
  facet normal 0 -1 -0
    outer loop
      vertex 0 67.75 77.5
      vertex -5 67.75 67.5
      vertex 0 67.75 67.5
    endloop
  endfacet
  facet normal 1 0 0
    outer loop
      vertex 91.5 -1 84.5
      vertex 91.5 -5 84.5
      vertex 91.5 -1 5
    endloop
  endfacet
  facet normal 1 -0 0
    outer loop
      vertex 91.5 -1 5
      vertex 91.5 78 0
      vertex 91.5 78 5
    endloop
  endfacet
  facet normal 1 0 0
    outer loop
      vertex 91.5 -1 5
      vertex 91.5 -5 0
      vertex 91.5 78 0
    endloop
  endfacet
  facet normal 1 0 0
    outer loop
      vertex 91.5 -5 0
      vertex 91.5 -1 5
      vertex 91.5 -5 84.5
    endloop
  endfacet
endsolid OpenSCAD_Model
